<?xml version="1.0" encoding="UTF-8" standalone="no"?>
<svg
   xmlns:dc="http://purl.org/dc/elements/1.1/"
   xmlns:cc="http://creativecommons.org/ns#"
   xmlns:rdf="http://www.w3.org/1999/02/22-rdf-syntax-ns#"
   xmlns:svg="http://www.w3.org/2000/svg"
   xmlns="http://www.w3.org/2000/svg"
   viewBox="0 0 900.13894 363.48493"
   height="363.48492"
   width="900.13892"
   xml:space="preserve"
   id="svg2"
   version="1.1"><metadata
     id="metadata8"><rdf:RDF><cc:Work
         rdf:about=""><dc:format>image/svg+xml</dc:format><dc:type
           rdf:resource="http://purl.org/dc/dcmitype/StillImage" /><dc:title></dc:title></cc:Work></rdf:RDF></metadata><defs
     id="defs6"><clipPath
       id="clipPath18"
       clipPathUnits="userSpaceOnUse"><path
         id="path16"
         d="M 0,850.39 H 850.39 V 0 H 0 Z" /></clipPath></defs><g
     transform="matrix(1.3333333,0,0,-1.3333333,-116.85693,759.11225)"
     id="g10"><g
       id="g12"><g
         clip-path="url(#clipPath18)"
         id="g14"><g
           transform="translate(126.9367,339.2435)"
           id="g20"><path
             id="path22"
             style="fill:#21254f;fill-opacity:1;fill-rule:nonzero;stroke:none"
             d="m 0,0 c -10.496,0 -17.225,2.825 -17.225,7.805 0,7.266 19.513,18.032 22.877,18.032 0.134,0 0.269,0 0.404,-0.135 -4.172,-2.422 -18.302,-11.169 -18.302,-17.09 0,-0.673 0.808,-1.48 3.365,-1.48 4.036,0 8.881,0.538 14.533,1.749 22.876,35.122 58.671,75.896 68.898,75.896 4.845,0 10.227,-4.71 11.034,-10.227 -1.076,1.48 -2.556,1.884 -3.767,1.884 -7.94,0 -36.872,-32.565 -59.882,-63.246 41.043,12.784 97.023,42.523 97.023,64.053 0,12.784 -17.36,19.916 -41.178,19.916 -47.503,0 -107.923,-40.37 -107.923,-57.864 0,-5.517 6.459,-8.881 9.958,-9.15 0,0 0,-0.135 -2.153,-0.135 -9.555,0 -16.956,2.691 -16.956,12.784 0,18.302 48.444,58.268 118.016,58.268 14.533,0 46.829,-5.652 46.829,-27.721 0,-35.392 -75.492,-64.996 -112.229,-71.86 -12.649,-17.627 -21.934,-33.103 -21.934,-38.62 0,-2.556 -0.135,-4.575 2.287,-4.979 -0.673,-0.269 -1.614,-0.403 -2.153,-0.403 -3.633,0 -5.921,3.364 -5.921,8.342 0,7.267 5.787,19.916 14.399,34.181" /></g><g
           transform="translate(257.7336,361.3119)"
           id="g24"><path
             id="path26"
             style="fill:#21254f;fill-opacity:1;fill-rule:nonzero;stroke:none"
             d="m 0,0 c -13.591,-13.86 -31.624,-33.237 -39.697,-34.853 h -1.077 c -2.153,0 -6.325,3.634 -6.325,6.864 0,5.786 7.402,19.377 15.072,30.008 4.71,6.593 10.361,13.053 13.726,15.745 0.673,0.673 1.48,0.806 1.884,0.806 3.229,0 8.478,-5.248 8.478,-8.746 0,-0.539 -0.539,0.134 -1.75,0.269 -2.019,0.269 -7.67,-6.729 -12.246,-12.65 -6.862,-9.015 -13.591,-20.722 -13.591,-24.626 6.46,2.692 20.185,14.803 26.645,20.994 6.997,6.862 16.955,18.57 24.625,24.491 0.673,0.538 1.346,0.673 1.884,0.673 3.23,0 8.343,-5.248 8.343,-8.613 0,-0.538 -0.403,0.135 -1.615,0.269 -0.941,0 -2.691,-1.211 -4.44,-3.095 C 17.897,5.383 14.129,0.539 9.688,-5.382 2.96,-14.398 -2.019,-23.952 -2.019,-27.721 6.459,-25.164 25.568,-6.862 33.776,0.942 34.583,1.615 35.256,0.539 34.853,0.135 23.146,-12.648 1.211,-35.122 -6.863,-35.122 c -0.673,0 -1.48,0.269 -2.153,0.808 -2.153,1.077 -4.844,4.171 -4.844,6.593 0,1.346 0.807,3.769 1.48,5.787 C -10.093,-15.744 -4.979,-6.189 0,0" /></g><g
           transform="translate(293.5256,347.9906)"
           id="g28"><path
             id="path30"
             style="fill:#21254f;fill-opacity:1;fill-rule:nonzero;stroke:none"
             d="M 0,0 C 11.708,1.345 34.046,23.146 34.853,28.259 19.916,23.414 4.441,7.132 0,0 m -7.132,-13.322 c -0.135,-1.616 1.077,-2.558 4.037,-2.558 9.824,0 34.449,18.705 48.041,30.009 0.403,0.269 1.346,-0.403 0.942,-0.808 C 35.795,3.902 9.016,-21.801 -8.881,-21.801 c -4.172,0 -9.555,4.845 -9.555,8.479 0,3.229 0.808,5.921 1.884,8.881 3.23,7.67 10.093,16.148 18.571,23.28 11.169,9.285 23.145,13.457 28.932,13.457 2.018,0 8.208,-3.096 8.208,-6.863 0,-8.343 -25.837,-27.721 -40.908,-28.124 -2.422,-2.827 -4.979,-7.133 -5.383,-10.631" /></g><g
           transform="translate(351.6569,379.3441)"
           id="g32"><path
             id="path34"
             style="fill:#21254f;fill-opacity:1;fill-rule:nonzero;stroke:none"
             d="m 0,0 c 0.808,0.538 1.346,0.673 1.884,0.673 3.23,0 8.343,-5.248 8.343,-8.612 0,-0.539 -0.403,0.134 -1.48,0.269 -2.018,0.135 -6.728,-5.114 -10.766,-10.496 -3.633,-4.845 -8.342,-11.17 -11.169,-16.148 7.133,9.285 20.589,20.588 32.162,28.931 5.248,3.769 9.285,6.056 12.111,6.325 1.48,0.135 6.998,-5.652 6.056,-6.728 -2.961,-3.095 -14.13,-12.919 -18.571,-23.415 6.46,0.538 15.745,6.594 24.088,13.995 0.134,0.135 0.942,0.269 1.076,0 -2.421,-3.23 -18.57,-18.301 -27.855,-18.301 -2.422,0 -6.459,4.71 -6.459,6.324 0,3.769 4.306,11.574 7.805,15.611 -12.38,-7.267 -18.705,-12.65 -27.856,-22.742 -6.863,-7.402 -14.936,-19.244 -11.976,-20.589 -3.903,-0.943 -7.132,3.229 -8.074,6.998 -0.269,1.211 0.404,3.767 2.018,6.862 3.365,7.671 9.42,16.956 14.803,24.626 C -9.15,-9.554 -3.364,-2.691 0,0" /></g><g
           transform="translate(435.4914,423.348)"
           id="g36"><path
             id="path38"
             style="fill:#21254f;fill-opacity:1;fill-rule:nonzero;stroke:none"
             d="m 0,0 c 2.019,1.615 3.768,2.691 4.979,2.691 7.536,0.404 12.918,-7.401 10.362,-5.92 -4.307,2.018 -12.246,-8.748 -18.167,-16.418 21.665,1.077 50.059,0 69.302,-4.037 1.077,-0.269 1.615,-0.539 0,-0.404 -26.644,2.288 -51.27,2.153 -73.743,-1.211 -4.979,-6.19 -9.42,-12.919 -14.802,-20.858 -11.707,-17.763 -21.8,-34.853 -25.03,-43.465 5.786,-0.673 28.125,21.262 36.064,28.528 0.807,0.673 1.346,-0.403 0.942,-0.807 -6.594,-7.536 -30.008,-32.027 -38.082,-34.988 -1.75,-0.673 -3.096,-0.134 -4.306,0.538 -1.077,0.538 -4.038,3.365 -4.845,5.383 -0.134,0.27 -0.403,0.538 -0.403,2.019 0,4.037 6.055,17.224 22.607,42.792 3.633,5.517 7.536,11.438 12.515,18.032 -12.785,-2.557 -20.724,-9.016 -17.225,-11.034 -2.153,0 -6.729,2.556 -7.132,6.863 -0.538,6.055 14.264,9.823 29.336,11.572 C -7.132,-6.998 -3.364,-2.691 0,0" /></g><g
           transform="translate(464.8254,377.9984)"
           id="g40"><path
             id="path42"
             style="fill:#21254f;fill-opacity:1;fill-rule:nonzero;stroke:none"
             d="m 0,0 c -24.356,0 -52.481,-45.349 -44.945,-48.578 7.535,-3.096 26.778,18.435 35.795,32.161 -0.673,1.211 -2.019,5.248 -1.481,6.594 0.403,1.345 4.441,5.383 6.191,5.517 1.345,0.135 2.825,-0.942 3.094,-1.345 2.557,-4.172 5.786,-7.267 11.169,-6.864 9.017,0.808 13.995,6.056 15.476,5.921 -0.673,-1.884 -6.056,-6.324 -12.65,-8.477 -2.961,-0.943 -5.786,-1.211 -7.939,-1.211 -2.019,0 -3.364,0.268 -4.037,0.538 -3.633,-17.898 -31.489,-37.276 -45.753,-36.468 -6.19,0.403 -10.227,5.518 -10.227,10.631 0,21.935 29.47,43.869 50.732,43.869 C 0.538,2.288 2.691,0.808 3.634,0 4.307,-0.403 3.902,-0.403 3.364,-0.403 2.019,-0.269 0.942,0 0,0" /></g><g
           transform="translate(517.7062,307.4857)"
           id="g44"><path
             id="path46"
             style="fill:#3d8c9a;fill-opacity:1;fill-rule:nonzero;stroke:none"
             d="m 0,0 c 32.431,0 98.1,32.431 98.1,52.75 0,8.343 -11.169,13.322 -24.358,16.955 -16.147,4.441 -34.449,6.863 -34.449,18.705 0,22.608 43.466,40.64 63.112,41.313 12.246,0.403 20.454,-2.557 20.321,-12.919 -0.27,-16.013 -23.685,-33.372 -37.949,-33.372 -2.691,0 -6.728,1.076 -6.728,4.037 0,5.516 5.248,11.303 7.939,12.918 -2.018,-2.287 -2.826,-5.114 -2.826,-6.997 0,-0.808 0.808,-0.808 1.615,-0.808 5.517,0 31.758,15.071 33.507,27.317 0.673,4.306 -2.96,5.518 -8.074,5.518 -1.48,0 -3.23,-0.135 -4.979,-0.27 -17.224,-1.884 -56.787,-24.087 -56.787,-37.948 0,-7.804 12.918,-11.169 26.51,-14.936 15.206,-4.172 30.95,-9.152 30.95,-24.088 0,-29.471 -67.014,-58.268 -103.751,-58.268 -8.882,0 -21.8,2.557 -21.8,13.188 0,19.916 60.825,52.077 78.183,51.674 C 22.876,45.08 -11.304,15.34 -11.304,5.383 -11.304,0.134 -4.307,0 0,0" /></g><g
           transform="translate(671.6476,361.3119)"
           id="g48"><path
             id="path50"
             style="fill:#3d8c9a;fill-opacity:1;fill-rule:nonzero;stroke:none"
             d="m 0,0 c -13.591,-13.86 -31.623,-33.237 -39.697,-34.853 h -1.076 c -2.154,0 -6.326,3.634 -6.326,6.864 0,5.786 7.402,19.377 15.073,30.008 4.71,6.593 10.361,13.053 13.725,15.745 0.673,0.673 1.481,0.806 1.884,0.806 3.229,0 8.478,-5.248 8.478,-8.746 0,-0.539 -0.539,0.134 -1.749,0.269 -2.019,0.269 -7.67,-6.729 -12.247,-12.65 -6.862,-9.015 -13.59,-20.722 -13.59,-24.626 6.459,2.692 20.185,14.803 26.644,20.994 6.997,6.862 16.955,18.57 24.626,24.491 0.673,0.538 1.346,0.673 1.884,0.673 3.229,0 8.343,-5.248 8.343,-8.613 0,-0.538 -0.404,0.135 -1.615,0.269 -0.942,0 -2.691,-1.211 -4.441,-3.095 C 17.897,5.383 14.13,0.539 9.689,-5.382 2.961,-14.398 -2.019,-23.952 -2.019,-27.721 6.46,-25.164 25.568,-6.862 33.776,0.942 34.584,1.615 35.257,0.539 34.854,0.135 23.146,-12.648 1.212,-35.122 -6.862,-35.122 c -0.673,0 -1.481,0.269 -2.154,0.808 -2.153,1.077 -4.844,4.171 -4.844,6.593 0,1.346 0.807,3.769 1.48,5.787 C -10.092,-15.744 -4.979,-6.189 0,0" /></g><g
           transform="translate(719.0129,379.3441)"
           id="g52"><path
             id="path54"
             style="fill:#3d8c9a;fill-opacity:1;fill-rule:nonzero;stroke:none"
             d="m 0,0 c 0.808,0.538 1.346,0.673 1.884,0.673 3.229,0 8.344,-5.248 8.344,-8.612 0,-0.539 -0.405,0.134 -1.481,0.269 -2.018,0.135 -6.728,-5.114 -10.766,-10.496 -3.632,-4.845 -8.342,-11.17 -11.169,-16.148 7.132,9.285 20.589,20.588 32.163,28.931 5.248,3.769 9.285,6.056 12.11,6.325 1.48,0.135 6.998,-5.652 6.056,-6.728 -2.96,-3.095 -14.13,-12.919 -18.571,-23.415 6.459,0.538 15.744,6.594 24.088,13.995 0.135,0.135 0.942,0.269 1.076,0 -2.421,-3.23 -18.57,-18.301 -27.855,-18.301 -2.422,0 -6.459,4.71 -6.459,6.324 0,3.769 4.306,11.574 7.805,15.611 -12.38,-7.267 -18.705,-12.65 -27.856,-22.742 -6.862,-7.402 -14.936,-19.244 -11.976,-20.589 -3.903,-0.943 -7.132,3.229 -8.075,6.998 -0.268,1.211 0.405,3.767 2.019,6.862 3.364,7.671 9.42,16.956 14.803,24.626 C -9.15,-9.554 -3.364,-2.691 0,0" /></g><g
           transform="translate(412.5714,476.132)"
           id="g56"><path
             id="path58"
             style="fill:#21254f;fill-opacity:1;fill-rule:nonzero;stroke:none"
             d="m 0,0 c 0,0 -0.214,4.861 -8.191,9.999 -7.977,5.142 -21.573,18.267 -22.751,21.523 -1.181,3.257 -5.224,8.719 -5.675,10.176 -0.456,1.454 -2.614,-2.347 -0.365,-7.133 2.25,-4.785 4.924,-9.93 5.659,-12.979 0.737,-3.049 4.647,-13.64 13.774,-18.292 9.127,-4.651 13.509,-7.188 13.058,-8.384 -0.451,-1.195 -2.496,-2.67 -4.613,-2.113 -2.119,0.559 -7.595,3.069 -8.2,1.892 -0.604,-1.176 1.849,-12.222 8.558,-14.876 6.707,-2.653 14.261,-0.728 15.291,0.089 1.03,0.814 -4.725,2.264 -3.706,4.33 1.022,2.063 3.991,0.782 5.864,2.121 1.87,1.344 6.569,0.171 7.798,0.028 1.233,-0.143 -0.489,1.15 -0.489,1.15 0,0 9.949,-1.616 14.065,-2.409 4.117,-0.791 14.196,0.061 17.028,-1.05 2.836,-1.11 27.259,-1.141 28.469,0.724 0.758,1.171 -3.675,0.572 -7.575,0.572 -3.9,-0.002 -16.378,1.297 -20.951,3.547 -4.572,2.247 -11.277,4.9 -14.32,5.567 -3.042,0.666 -12.236,-0.614 -15.827,-0.661 -3.593,-0.05 -5.593,0.183 -5.593,0.183 0,0 -2.002,2.884 -3.893,4.041 C 5.521,-0.799 0,0 0,0" /></g><g
           transform="translate(279.1677,465.5941)"
           id="g60"><path
             id="path62"
             style="fill:#21254f;fill-opacity:1;fill-rule:nonzero;stroke:none"
             d="M 0,0 2.015,4.205 C 2.241,4.676 2.369,5.125 2.396,5.552 2.425,5.978 2.369,6.374 2.228,6.741 2.087,7.107 1.874,7.433 1.589,7.719 1.304,8.005 0.968,8.242 0.582,8.427 L -0.34,8.868 C -0.727,9.054 -1.121,9.167 -1.522,9.211 -1.923,9.253 -2.311,9.214 -2.685,9.095 -3.059,8.975 -3.403,8.771 -3.718,8.483 -4.031,8.192 -4.303,7.813 -4.528,7.34 L -6.543,3.136 Z m -7.38,3.536 1.851,3.862 c 0.411,0.858 0.478,1.621 0.203,2.29 -0.275,0.668 -0.762,1.17 -1.461,1.505 l -0.919,0.44 c -0.698,0.335 -1.394,0.401 -2.087,0.196 -0.694,-0.204 -1.247,-0.735 -1.658,-1.593 l -1.851,-3.862 z m 5.932,-6.668 0.823,1.717 -13.388,6.415 -0.822,-1.716 -0.794,0.38 3.465,7.23 c 0.576,1.201 1.344,1.989 2.305,2.365 0.96,0.375 1.998,0.296 3.111,-0.238 0.515,-0.247 0.933,-0.536 1.257,-0.867 0.324,-0.331 0.576,-0.684 0.756,-1.061 0.179,-0.375 0.283,-0.765 0.31,-1.163 0.028,-0.401 -0.001,-0.802 -0.087,-1.2 l 0.064,-0.031 c 0.242,0.395 0.545,0.742 0.91,1.043 0.363,0.3 0.776,0.524 1.234,0.674 0.46,0.15 0.952,0.212 1.478,0.188 C -0.299,10.581 0.25,10.433 0.823,10.158 1.454,9.855 1.978,9.49 2.398,9.06 2.817,8.63 3.124,8.158 3.318,7.643 3.512,7.128 3.59,6.585 3.554,6.013 3.517,5.441 3.355,4.854 3.067,4.254 l -3.721,-7.766 z" /></g><g
           transform="translate(291.9538,486.0614)"
           id="g64"><path
             id="path66"
             style="fill:#21254f;fill-opacity:1;fill-rule:nonzero;stroke:none"
             d="m 0,0 c -0.598,-0.898 -1.204,-1.595 -1.819,-2.09 -0.615,-0.495 -1.276,-0.794 -1.981,-0.896 -0.705,-0.101 -1.47,-0.007 -2.294,0.284 -0.823,0.291 -1.743,0.774 -2.758,1.45 l -7.772,5.173 -1.054,-1.585 -0.733,0.489 2.966,4.455 0.733,-0.487 -1.055,-1.585 7.988,-5.317 C -7,-0.627 -6.29,-1.01 -5.646,-1.257 c 0.643,-0.247 1.247,-0.349 1.808,-0.305 0.564,0.045 1.088,0.249 1.576,0.61 0.488,0.361 0.964,0.892 1.43,1.592 0.475,0.712 0.787,1.366 0.936,1.963 0.15,0.595 0.141,1.168 -0.026,1.717 -0.167,0.55 -0.487,1.077 -0.959,1.582 -0.472,0.505 -1.097,1.016 -1.875,1.534 l -7.988,5.317 -1.054,-1.584 -0.733,0.488 2.676,4.021 0.733,-0.489 -1.055,-1.585 7.594,-5.054 C -1.568,7.874 -0.751,7.216 -0.132,6.575 0.488,5.934 0.906,5.275 1.121,4.599 1.336,3.921 1.35,3.207 1.164,2.454 0.976,1.703 0.589,0.884 0,0" /></g><g
           transform="translate(299.3259,498.2118)"
           id="g68"><path
             id="path70"
             style="fill:#21254f;fill-opacity:1;fill-rule:nonzero;stroke:none"
             d="m 0,0 1.259,1.427 -11.128,9.825 -1.259,-1.428 -0.661,0.583 7.889,8.935 2.871,-2.535 -0.866,-0.98 -2.175,1.92 -4.74,-5.368 5.172,-4.566 3.512,3.977 -1.463,1.292 0.739,0.837 L 2.771,10.724 2.031,9.885 0.568,11.176 -2.942,7.199 2.283,2.586 3.858,4.37 4.517,3.787 0.66,-0.583 Z" /></g><g
           transform="translate(312.1423,512.078)"
           id="g72"><path
             id="path74"
             style="fill:#21254f;fill-opacity:1;fill-rule:nonzero;stroke:none"
             d="m 0,0 1.427,1.26 -9.826,11.128 -1.427,-1.26 -0.582,0.659 8.934,7.889 2.536,-2.871 -0.981,-0.866 -1.922,2.176 -5.367,-4.74 4.566,-5.172 3.977,3.512 -1.291,1.462 0.838,0.74 3.197,-3.62 L 3.24,9.558 1.95,11.019 -2.027,7.508 2.586,2.283 4.369,3.857 4.952,3.198 0.583,-0.66 Z" /></g><g
           transform="translate(326.5734,524.2587)"
           id="g76"><path
             id="path78"
             style="fill:#21254f;fill-opacity:1;fill-rule:nonzero;stroke:none"
             d="M 0,0 1.575,1.069 -6.767,13.349 -8.341,12.28 -8.836,13.007 1.102,19.758 3.254,16.59 2.172,15.854 0.541,18.255 -5.461,14.178 -1.758,8.727 2.63,11.709 1.534,13.322 2.459,13.951 5.173,9.955 4.248,9.328 3.152,10.94 -1.237,7.96 2.827,1.977 9.006,6.175 7.295,8.693 8.377,9.43 10.61,6.143 0.495,-0.729 Z" /></g><g
           transform="translate(345.7824,536.2523)"
           id="g80"><path
             id="path82"
             style="fill:#21254f;fill-opacity:1;fill-rule:nonzero;stroke:none"
             d="M 0,0 2.126,1.066 -4.51,14.291 -8.805,12.136 -7.503,9.542 -8.673,8.956 -10.391,12.38 1.921,18.556 3.638,15.134 2.469,14.547 1.167,17.141 -3.128,14.985 3.508,1.76 5.635,2.826 6.03,2.04 0.395,-0.787 Z" /></g><g
           transform="translate(371.3132,552.181)"
           id="g84"><path
             id="path86"
             style="fill:#21254f;fill-opacity:1;fill-rule:nonzero;stroke:none"
             d="M 0,0 C -0.35,-0.104 -0.664,-0.078 -0.942,0.08 -1.221,0.236 -1.408,0.474 -1.503,0.793 L -1.53,0.884 c -0.095,0.319 -0.069,0.62 0.077,0.905 0.147,0.283 0.395,0.477 0.745,0.583 0.35,0.103 0.664,0.077 0.942,-0.08 C 0.513,2.135 0.7,1.897 0.795,1.579 L 0.822,1.488 C 0.917,1.168 0.892,0.867 0.745,0.583 0.598,0.299 0.349,0.105 0,0" /></g><g
           transform="translate(394.301,559.8563)"
           id="g88"><path
             id="path90"
             style="fill:#21254f;fill-opacity:1;fill-rule:nonzero;stroke:none"
             d="M 0,0 4.207,0.485 C 4.695,0.542 5.116,0.669 5.468,0.871 5.819,1.07 6.106,1.319 6.328,1.616 6.548,1.913 6.706,2.25 6.798,2.627 6.89,3.005 6.913,3.399 6.865,3.81 L 6.746,4.848 C 6.698,5.258 6.587,5.636 6.411,5.984 6.236,6.331 6.006,6.623 5.723,6.862 5.44,7.101 5.104,7.277 4.716,7.394 4.327,7.507 3.889,7.538 3.4,7.48 L -0.807,6.996 Z m -2.539,-8.098 1.891,0.217 -1.7,14.747 -1.89,-0.218 -0.101,0.875 7.752,0.893 C 4.862,8.583 6.024,8.337 6.898,7.678 7.772,7.019 8.291,5.986 8.453,4.581 8.591,3.381 8.369,2.363 7.787,1.528 7.205,0.693 6.283,0.13 5.023,-0.158 l 3.548,-5.018 c 0.707,-1.013 1.613,-1.456 2.716,-1.329 l 0.331,0.038 0.101,-0.875 -1.229,-0.142 C 10.08,-7.531 9.718,-7.533 9.4,-7.489 9.085,-7.447 8.799,-7.356 8.543,-7.218 8.288,-7.081 8.052,-6.897 7.833,-6.667 7.615,-6.438 7.4,-6.168 7.189,-5.858 l -3.703,5.326 -3.38,-0.389 0.783,-6.784 1.89,0.219 0.101,-0.875 -5.318,-0.612 z" /></g><g
           transform="translate(412.1393,553.6122)"
           id="g92"><path
             id="path94"
             style="fill:#21254f;fill-opacity:1;fill-rule:nonzero;stroke:none"
             d="m 0,0 1.902,-0.033 0.253,14.843 -1.903,0.032 0.015,0.88 12.012,-0.204 -0.065,-3.829 -1.308,0.022 0.049,2.901 L 3.7,14.736 3.588,8.147 8.892,8.057 8.926,10.008 10.044,9.989 9.961,5.16 8.843,5.179 8.876,7.129 3.573,7.22 3.45,-0.011 10.918,-0.138 10.97,2.906 12.278,2.884 12.211,-1.087 -0.015,-0.881 Z" /></g><g
           transform="translate(436.9377,550.8583)"
           id="g96"><path
             id="path98"
             style="fill:#21254f;fill-opacity:1;fill-rule:nonzero;stroke:none"
             d="M 0,0 C -1.163,0.167 -2.036,0.472 -2.621,0.916 -3.207,1.36 -3.588,1.859 -3.765,2.414 L -3.883,2.43 -4.105,0.875 -5.4,1.061 -4.7,5.96 -3.405,5.774 -3.579,4.549 C -3.64,4.126 -3.63,3.725 -3.548,3.344 -3.467,2.963 -3.291,2.617 -3.023,2.307 -2.756,1.996 -2.385,1.727 -1.913,1.5 -1.441,1.271 -0.845,1.106 -0.122,1.003 1.354,0.792 2.474,0.944 3.236,1.46 3.999,1.976 4.456,2.767 4.609,3.835 4.679,4.322 4.666,4.76 4.569,5.15 4.473,5.54 4.302,5.886 4.056,6.185 3.811,6.484 3.501,6.752 3.126,6.991 2.752,7.228 2.329,7.445 1.861,7.64 L 0.479,8.223 c -1.481,0.628 -2.538,1.36 -3.171,2.195 -0.634,0.836 -0.864,1.859 -0.691,3.068 0.096,0.675 0.308,1.257 0.634,1.747 0.327,0.49 0.74,0.883 1.239,1.181 0.499,0.297 1.08,0.498 1.744,0.604 0.664,0.105 1.389,0.101 2.174,-0.011 1.067,-0.152 1.884,-0.438 2.449,-0.855 0.565,-0.417 0.932,-0.879 1.1,-1.382 L 6.074,14.752 6.276,16.166 7.571,15.98 6.905,11.317 5.609,11.502 5.792,12.773 C 5.908,13.59 5.687,14.291 5.131,14.875 4.573,15.46 3.62,15.848 2.271,16.042 1.046,16.217 0.076,16.074 -0.64,15.617 -1.354,15.158 -1.778,14.458 -1.913,13.516 -2.05,12.558 -1.855,11.792 -1.328,11.221 -0.801,10.649 -0.031,10.146 0.98,9.713 L 2.319,9.161 C 3.783,8.534 4.82,7.802 5.429,6.962 6.037,6.122 6.26,5.128 6.096,3.983 5.995,3.277 5.785,2.649 5.467,2.103 5.148,1.555 4.731,1.106 4.217,0.755 3.702,0.404 3.09,0.159 2.382,0.02 1.673,-0.119 0.878,-0.125 0,0" /></g><g
           transform="translate(452.6467,548.9813)"
           id="g100"><path
             id="path102"
             style="fill:#21254f;fill-opacity:1;fill-rule:nonzero;stroke:none"
             d="m 0,0 2.295,-0.63 3.921,14.268 -4.634,1.274 -0.769,-2.799 -1.26,0.346 1.014,3.694 13.282,-3.651 -1.015,-3.693 -1.262,0.347 0.77,2.798 L 7.707,13.229 3.785,-1.04 6.079,-1.671 5.846,-2.519 -0.232,-0.848 Z" /></g><g
           transform="translate(472.715,548.2811)"
           id="g104"><path
             id="path106"
             style="fill:#21254f;fill-opacity:1;fill-rule:nonzero;stroke:none"
             d="M 0,0 5.881,-2.462 6.452,6.97 6.343,7.016 Z M -6.129,-3.366 -4.922,-3.871 6.352,8.457 7.954,7.785 7.081,-8.897 l 1.207,-0.505 -0.34,-0.812 -4.849,2.03 0.339,0.812 2.108,-0.882 0.258,4.87 -6.408,2.682 -3.265,-3.61 2.107,-0.882 -0.34,-0.813 -4.367,1.829 z" /></g><g
           transform="translate(491.7883,531.535)"
           id="g108"><path
             id="path110"
             style="fill:#21254f;fill-opacity:1;fill-rule:nonzero;stroke:none"
             d="m 0,0 c -0.928,0.55 -1.654,1.119 -2.182,1.708 -0.526,0.588 -0.859,1.233 -0.997,1.932 -0.138,0.699 -0.084,1.467 0.165,2.305 0.248,0.839 0.683,1.783 1.306,2.83 L 3.056,16.804 1.419,17.775 1.868,18.532 6.473,15.8 6.022,15.043 4.386,16.015 -0.512,7.762 C -0.988,6.958 -1.333,6.229 -1.547,5.573 -1.762,4.918 -1.832,4.311 -1.758,3.75 -1.684,3.192 -1.454,2.678 -1.067,2.209 -0.682,1.741 -0.128,1.292 0.596,0.863 1.332,0.427 2.002,0.148 2.604,0.03 3.207,-0.088 3.779,-0.05 4.318,0.146 4.859,0.34 5.368,0.687 5.849,1.184 6.328,1.683 6.807,2.333 7.283,3.136 l 4.898,8.253 -1.637,0.971 0.449,0.757 4.153,-2.464 L 14.696,9.896 13.06,10.867 8.405,3.022 C 7.783,1.973 7.168,1.123 6.56,0.472 5.951,-0.181 5.314,-0.631 4.649,-0.881 3.984,-1.131 3.272,-1.183 2.513,-1.036 1.751,-0.888 0.913,-0.542 0,0" /></g><g
           transform="translate(511.8488,528.7269)"
           id="g112"><path
             id="path114"
             style="fill:#21254f;fill-opacity:1;fill-rule:nonzero;stroke:none"
             d="M 0,0 3.301,-2.653 C 3.683,-2.96 4.069,-3.169 4.46,-3.28 c 0.389,-0.11 0.768,-0.139 1.135,-0.088 0.366,0.051 0.716,0.176 1.051,0.376 0.333,0.2 0.628,0.46 0.887,0.782 l 0.656,0.815 c 0.258,0.322 0.449,0.667 0.573,1.036 C 8.885,0.01 8.932,0.379 8.903,0.748 8.874,1.117 8.765,1.48 8.574,1.837 8.383,2.195 8.096,2.527 7.712,2.835 l -3.3,2.654 z M -7.548,-3.882 -6.064,-5.075 3.237,6.495 1.754,7.687 2.306,8.373 8.387,3.484 C 9.523,2.57 10.165,1.57 10.31,0.484 10.454,-0.601 10.084,-1.695 9.197,-2.797 8.44,-3.739 7.561,-4.296 6.558,-4.468 5.554,-4.64 4.507,-4.38 3.416,-3.686 l -1.079,-6.05 c -0.225,-1.216 0.097,-2.172 0.962,-2.868 l 0.259,-0.207 -0.551,-0.687 -0.965,0.776 c -0.321,0.258 -0.577,0.514 -0.769,0.77 -0.192,0.256 -0.328,0.523 -0.409,0.802 -0.082,0.277 -0.117,0.575 -0.107,0.892 0.01,0.316 0.052,0.658 0.124,1.026 l 1.189,6.378 -2.651,2.132 -4.278,-5.322 1.483,-1.193 -0.552,-0.685 -4.171,3.354 z" /></g><g
           transform="translate(526.3615,512.7845)"
           id="g116"><path
             id="path118"
             style="fill:#21254f;fill-opacity:1;fill-rule:nonzero;stroke:none"
             d="M 0,0 4.444,-4.573 8.669,3.88 8.586,3.966 Z M -6.957,-0.693 -6.046,-1.631 9.16,5.287 10.37,4.042 3.024,-10.962 3.937,-11.9 l -0.631,-0.614 -3.665,3.77 0.63,0.614 1.593,-1.639 2.148,4.378 -4.842,4.981 -4.42,-2.039 1.592,-1.639 -0.631,-0.613 -3.3,3.395 z" /></g><g
           transform="translate(534.1027,496.057)"
           id="g120"><path
             id="path122"
             style="fill:#21254f;fill-opacity:1;fill-rule:nonzero;stroke:none"
             d="M 0,0 1.093,-1.558 13.247,6.966 12.153,8.525 12.874,9.03 14.991,6.011 8.76,-9.837 l 0.054,-0.078 10.908,7.649 -1.094,1.559 0.722,0.505 2.787,-3.973 -0.722,-0.505 -1.093,1.557 -12.874,-9.029 -0.751,1.071 6.523,16.635 -0.054,0.077 -11.473,-8.045 1.093,-1.558 -0.72,-0.507 -2.787,3.974 z" /></g><g
           transform="translate(548.2014,474.0887)"
           id="g124"><path
             id="path126"
             style="fill:#21254f;fill-opacity:1;fill-rule:nonzero;stroke:none"
             d="M 0,0 1.075,-2.123 14.277,4.56 12.106,8.848 9.518,7.536 8.926,8.705 l 3.418,1.729 6.22,-12.289 -3.417,-1.73 -0.591,1.167 2.59,1.311 -2.17,4.287 -13.203,-6.682 1.075,-2.123 -0.785,-0.398 -2.848,5.626 z" /></g></g></g></g></svg>